<svg id="Layer_1" data-name="Layer 1" xmlns="http://www.w3.org/2000/svg" viewBox="0 0 493.72 105.98"><defs><style>.cls-1{fill:#fff;fill-rule:evenodd;}</style></defs><path class="cls-1" d="M333.4,390.09H322.81a5,5,0,0,1-5-5h0V374.52a5.29,5.29,0,0,0-5.3-5H302a5,5,0,0,1-5-5h0V354a5,5,0,0,0-5-5H281.42a5,5,0,0,1-5-5h0V333.45a5,5,0,0,1,5-5H292a5,5,0,0,1,5,5h0V344a5,5,0,0,0,5,5h10.58a5.3,5.3,0,0,1,5.3,5v10.58a5.29,5.29,0,0,0,5,5.19H333.4a5,5,0,0,1,5,5h0v10.58A5,5,0,0,1,333.4,390.09Zm0-40.92H323.13a5.29,5.29,0,0,1-5.29-5.3V313.44a5.3,5.3,0,0,0-5.3-5.3H261.73a5.3,5.3,0,0,0-5.3,5.3v51a5.29,5.29,0,0,0,5.3,5.29h30.59a5.29,5.29,0,0,1,5.3,5.29v10.17a5.29,5.29,0,0,1-5.3,5.29H261.73a5.29,5.29,0,0,1-5.3-5.29V375.05a5.29,5.29,0,0,0-5.29-5.29h-9.85a5.29,5.29,0,0,1-5.29-5.29v-51a5.29,5.29,0,0,1,5.29-5.3h10.17a5.29,5.29,0,0,0,5.29-5.29V293a5.29,5.29,0,0,1,5.29-5.29h54.21a5.29,5.29,0,0,1,5.29,5.29v10.17a5.29,5.29,0,0,0,5.3,5.29h6.56a5.29,5.29,0,0,1,5.29,5.29v30.6A5.28,5.28,0,0,1,333.4,349.17Z" transform="translate(-236 -287.66)"/><path class="cls-1" d="M469.6,308.3H439.27a5.29,5.29,0,0,0-5.29,5.3v74.74a5.29,5.29,0,0,1-5.3,5.29H418.52a5.29,5.29,0,0,1-5.3-5.29v-74.9a5.29,5.29,0,0,0-5.29-5.3H374.21a5.29,5.29,0,0,1-5.29-5.29V293a5.29,5.29,0,0,1,5.29-5.29h95.28a5.29,5.29,0,0,1,5.3,5.29v10.17A5.29,5.29,0,0,1,469.6,308.3Z" transform="translate(-236 -287.66)"/><path class="cls-1" d="M585.53,369.76H575.36a5.29,5.29,0,0,0-5.29,5.29v10.17a5.29,5.29,0,0,1-5.29,5.29h-34a5.29,5.29,0,0,1-5.29-5.29V375.05a5.29,5.29,0,0,0-5.3-5.29H510a5.29,5.29,0,0,1-5.29-5.29V293a5.29,5.29,0,0,1,5.29-5.29h10.16a5.29,5.29,0,0,1,5.3,5.29v71.52a5.29,5.29,0,0,0,5.29,5.29h34a5.29,5.29,0,0,0,5.29-5.29V293a5.29,5.29,0,0,1,5.29-5.29h10.17a5.29,5.29,0,0,1,5.29,5.29v71.52A5.29,5.29,0,0,1,585.53,369.76Z" transform="translate(-236 -287.66)"/><path class="cls-1" d="M585.53,369.76H575.36a5.29,5.29,0,0,0-5.29,5.29v10.17a5.29,5.29,0,0,1-5.29,5.29h-34a5.29,5.29,0,0,1-5.29-5.29V375.05a5.29,5.29,0,0,0-5.3-5.29H510a5.29,5.29,0,0,1-5.29-5.29V293a5.29,5.29,0,0,1,5.29-5.29h10.16a5.29,5.29,0,0,1,5.3,5.29v71.52a5.29,5.29,0,0,0,5.29,5.29h34a5.29,5.29,0,0,0,5.29-5.29V293a5.29,5.29,0,0,1,5.29-5.29h10.17a5.29,5.29,0,0,1,5.29,5.29v71.52A5.29,5.29,0,0,1,585.53,369.76Z" transform="translate(-236 -287.66)"/><path class="cls-1" d="M725.64,393.47H714.53a4.87,4.87,0,0,1-4.77-4.92V313.23A4.87,4.87,0,0,0,705,308.3H690.65a4.88,4.88,0,0,0-4.76,4.93v75.32a4.86,4.86,0,0,1-4.76,4.92H670.22a4.86,4.86,0,0,1-4.76-4.92V313.23a4.87,4.87,0,0,1,4.76-4.93h10.27a5.3,5.3,0,0,0,5.3-4.76v-11a5.28,5.28,0,0,1,5.29-4.76h13a5.28,5.28,0,0,1,5.29,4.76v11a5.3,5.3,0,0,0,5.3,4.76H725a4.87,4.87,0,0,1,4.76,4.93v75.32A4.86,4.86,0,0,1,725.64,393.47ZM660.48,308.3H641.8v80.25a4.87,4.87,0,0,1-4.77,4.92h-11a4.86,4.86,0,0,1-4.76-4.92V308.3h0V292.42a5.29,5.29,0,0,1,5.29-4.76h34a5.28,5.28,0,0,1,5.29,4.76v11A5.29,5.29,0,0,1,660.48,308.3Z" transform="translate(-236 -287.66)"/></svg>