<svg xmlns="http://www.w3.org/2000/svg" viewBox="0 0 159 50.36"><defs><style>.cls-1{fill:#fff;fill-rule:evenodd;}</style></defs><g id="Layer_2" data-name="Layer 2"><g id="图层_1" data-name="图层 1"><path class="cls-1" d="M49.2,50.36a1.9,1.9,0,1,1,1.89-1.9A1.9,1.9,0,0,1,49.2,50.36Zm-1-20.47A1.92,1.92,0,1,1,50.15,28,1.92,1.92,0,0,1,48.23,29.89Zm0-5.75a1.92,1.92,0,1,1,1.92-1.91A1.91,1.91,0,0,1,48.23,24.14Zm-3.85-3.39v3.5H40.52V20a1.91,1.91,0,0,1,.56-1.35l4.52-4.48a2,2,0,0,1,2.26-.41,1.9,1.9,0,0,1,.52,3.07Zm3.48,16a2,2,0,0,1-2.26-.41l-4.52-4.48a1.91,1.91,0,0,1-.56-1.35V26.18h3.86v3.5l4,4A1.9,1.9,0,0,1,47.86,36.71ZM38.59,18.16V32l11,11a1.93,1.93,0,1,1-2.7,2.77L35.29,34.16a1.9,1.9,0,0,1-.57-1.36V17.36A1.9,1.9,0,0,1,35.29,16l7.08-7.09a1.93,1.93,0,1,1,2.78,2.69Zm-4.45-3.49a1.91,1.91,0,0,1-1.37.56H17.37A1.89,1.89,0,0,1,16,14.67L8.92,7.57a1.93,1.93,0,1,1,2.7-2.76l6.55,6.56H32l6.5-6.52a2,2,0,0,1,2.28-.41,1.94,1.94,0,0,1,.5,3.1ZM32,8.87a1.92,1.92,0,0,1-1.37.57H26.35V5.58h3.52l3.95-3.95a2,2,0,0,1,2.27-.42,1.94,1.94,0,0,1,.5,3.1Zm-4.1-5a1.92,1.92,0,1,1,1.92-1.92A1.92,1.92,0,0,1,27.94,3.83ZM20.1,9.44a1.92,1.92,0,0,1-1.37-.57L14.21,4.34a1.93,1.93,0,1,1,2.7-2.76l4,4h3.52V9.44H20.1Zm2.1-5.61a1.92,1.92,0,1,1,1.92-1.92A1.92,1.92,0,0,1,22.2,3.83ZM15.4,17.39V32.82a1.93,1.93,0,0,1-.56,1.37L7.76,41.28a2,2,0,0,1-2.28.41A1.94,1.94,0,0,1,5,38.58L11.54,32V18.19L5,11.65a1.93,1.93,0,1,1,2.7-2.77L14.84,16A1.91,1.91,0,0,1,15.4,17.39ZM9,18.61A1.88,1.88,0,0,1,9.61,20v4.29H5.75v-3.5L1.8,16.84a1.92,1.92,0,1,1,2.68-2.75Zm-7.13,1.7A1.92,1.92,0,1,1,0,22.23,1.92,1.92,0,0,1,1.91,20.31Zm0,5.75A1.92,1.92,0,1,1,0,28,1.92,1.92,0,0,1,1.91,26.06Zm3.84,3.62v-3.5H9.61v4.29A1.88,1.88,0,0,1,9,31.82L4.52,36.3a2,2,0,0,1-2.26.41,1.9,1.9,0,0,1-.51-3.07ZM16,35.12a1.92,1.92,0,0,1,1.36-.57h15.4a1.92,1.92,0,0,1,1.37.57L45.64,46.65a1.93,1.93,0,1,1-2.7,2.76l-11-11H18.15l-6.51,6.51a2,2,0,0,1-2.27.42,1.94,1.94,0,0,1-.5-3.1Zm2.74,5.79a2,2,0,0,1,1.37-.56h4.32v3.86H20.9L17,48.16a1.93,1.93,0,1,1-2.77-2.69Zm3.47,5.46a1.92,1.92,0,1,1-1.91,1.92A1.92,1.92,0,0,1,22.2,46.37Zm8.47-6a2,2,0,0,1,1.37.56l4.52,4.53a1.93,1.93,0,1,1-2.7,2.77l-4-4H26.35V40.35h4.32Zm-2.73,6A1.92,1.92,0,1,1,26,48.29,1.92,1.92,0,0,1,27.94,46.37Z"/><path class="cls-1" d="M44.38,20.75v3.5H40.52V20a1.91,1.91,0,0,1,.56-1.35l4.52-4.48a2,2,0,0,1,2.26-.41,1.9,1.9,0,0,1,.52,3.07Zm3.48,16a2,2,0,0,1-2.26-.41l-4.52-4.48a1.91,1.91,0,0,1-.56-1.35V26.18h3.86v3.5l4,4A1.9,1.9,0,0,1,47.86,36.71Zm-13.72-22a1.91,1.91,0,0,1-1.37.56H17.37A1.89,1.89,0,0,1,16,14.67L8.92,7.57a1.93,1.93,0,1,1,2.7-2.76l6.55,6.56H32l6.5-6.52a2,2,0,0,1,2.28-.41,1.94,1.94,0,0,1,.5,3.1ZM32,8.87a1.92,1.92,0,0,1-1.37.57H26.35V5.58h3.52l3.95-3.95a2,2,0,0,1,2.27-.42,1.94,1.94,0,0,1,.5,3.1Zm-4.1-5a1.92,1.92,0,1,1,1.92-1.92A1.92,1.92,0,0,1,27.94,3.83ZM20.1,9.44a1.92,1.92,0,0,1-1.37-.57L14.21,4.34a1.93,1.93,0,1,1,2.7-2.76l4,4h3.52V9.44H20.1Zm2.1-5.61a1.92,1.92,0,1,1,1.92-1.92A1.92,1.92,0,0,1,22.2,3.83ZM15.4,17.39V32.82a1.93,1.93,0,0,1-.56,1.37L7.76,41.28a2,2,0,0,1-2.28.41A1.94,1.94,0,0,1,5,38.58L11.54,32V18.19L5,11.65a1.93,1.93,0,1,1,2.7-2.77L14.84,16A1.91,1.91,0,0,1,15.4,17.39ZM9,18.61A1.88,1.88,0,0,1,9.61,20v4.29H5.75v-3.5L1.8,16.84a1.92,1.92,0,1,1,2.68-2.75Zm-7.13,1.7A1.92,1.92,0,1,1,0,22.23,1.92,1.92,0,0,1,1.91,20.31Zm0,5.75A1.92,1.92,0,1,1,0,28,1.92,1.92,0,0,1,1.91,26.06Zm3.84,3.62v-3.5H9.61v4.29A1.88,1.88,0,0,1,9,31.82L4.52,36.3a2,2,0,0,1-2.26.41,1.9,1.9,0,0,1-.51-3.07ZM16,35.12a1.92,1.92,0,0,1,1.36-.57h15.4a1.92,1.92,0,0,1,1.37.57L45.64,46.65a1.93,1.93,0,1,1-2.7,2.76l-11-11H18.15l-6.51,6.51a2,2,0,0,1-2.27.42,1.94,1.94,0,0,1-.5-3.1Zm2.74,5.79a2,2,0,0,1,1.37-.56h4.32v3.86H20.9L17,48.16a1.93,1.93,0,1,1-2.77-2.69Zm3.47,5.46a1.92,1.92,0,1,1-1.91,1.92A1.92,1.92,0,0,1,22.2,46.37Zm8.47-6a2,2,0,0,1,1.37.56l4.52,4.53a1.93,1.93,0,1,1-2.7,2.77l-4-4H26.35V40.35h4.32Zm-2.73,6A1.92,1.92,0,1,1,26,48.29,1.92,1.92,0,0,1,27.94,46.37Z"/><path class="cls-1" d="M84,35.84H82a.94.94,0,0,1-.94-.94v-2a1,1,0,0,0-1-.94h-2a.94.94,0,0,1-.94-.94v-2a.94.94,0,0,0-.94-.94h-2a.94.94,0,0,1-.94-.94v-2a.94.94,0,0,1,.94-.94h2a.94.94,0,0,1,.94.94v2a.94.94,0,0,0,.94.94h2a1,1,0,0,1,1,.94v2A1,1,0,0,0,82,32h2a.94.94,0,0,1,.94.94v2A.94.94,0,0,1,84,35.84Zm0-7.73H82.06a1,1,0,0,1-1-1V21.36a1,1,0,0,0-1-1H70.46a1,1,0,0,0-1,1V31a1,1,0,0,0,1,1h5.78a1,1,0,0,1,1,1v1.92a1,1,0,0,1-1,1H70.46a1,1,0,0,1-1-1V33a1,1,0,0,0-1-1H66.6a1,1,0,0,1-1-1V21.36a1,1,0,0,1,1-1h1.92a1,1,0,0,0,1-1V17.49a1,1,0,0,1,1-1H80.76a1,1,0,0,1,1,1v1.92a1,1,0,0,0,1,1H84a1,1,0,0,1,1,1v5.78A1,1,0,0,1,84,28.11Z"/><path class="cls-1" d="M109.73,20.39H104a1,1,0,0,0-1,1V35.51a1,1,0,0,1-1,1h-1.92a1,1,0,0,1-1-1V21.36a1,1,0,0,0-1-1H91.71a1,1,0,0,1-1-1V17.49a1,1,0,0,1,1-1h18a1,1,0,0,1,1,1v1.92A1,1,0,0,1,109.73,20.39Z"/><path class="cls-1" d="M131.63,32h-1.92a1,1,0,0,0-1,1v1.92a1,1,0,0,1-1,1h-6.43a1,1,0,0,1-1-1V33a1,1,0,0,0-1-1h-1.92a1,1,0,0,1-1-1V17.49a1,1,0,0,1,1-1h1.92a1,1,0,0,1,1,1V31a1,1,0,0,0,1,1h6.43a1,1,0,0,0,1-1V17.49a1,1,0,0,1,1-1h1.92a1,1,0,0,1,1,1V31A1,1,0,0,1,131.63,32Z"/><path class="cls-1" d="M131.63,32h-1.92a1,1,0,0,0-1,1v1.92a1,1,0,0,1-1,1h-6.43a1,1,0,0,1-1-1V33a1,1,0,0,0-1-1h-1.92a1,1,0,0,1-1-1V17.49a1,1,0,0,1,1-1h1.92a1,1,0,0,1,1,1V31a1,1,0,0,0,1,1h6.43a1,1,0,0,0,1-1V17.49a1,1,0,0,1,1-1h1.92a1,1,0,0,1,1,1V31A1,1,0,0,1,131.63,32Z"/><path class="cls-1" d="M158.1,36.48H156a.92.92,0,0,1-.9-.93V21.32a.92.92,0,0,0-.9-.93h-2.71a.92.92,0,0,0-.9.93V35.55a.92.92,0,0,1-.9.93h-2.06a.92.92,0,0,1-.9-.93V21.32a.92.92,0,0,1,.9-.93h1.94a1,1,0,0,0,1-.9V17.42a1,1,0,0,1,1-.9h2.46a1,1,0,0,1,1,.9v2.07a1,1,0,0,0,1,.9h1.94a.92.92,0,0,1,.9.93V35.55A.92.92,0,0,1,158.1,36.48ZM145.79,20.39h-3.53V35.55a.92.92,0,0,1-.9.93h-2.07a.92.92,0,0,1-.9-.93V20.39h0v-3a1,1,0,0,1,1-.9h6.42a1,1,0,0,1,1,.9v2.07A1,1,0,0,1,145.79,20.39Z"/></g></g></svg>