<svg id="Layer_1" data-name="Layer 1" xmlns="http://www.w3.org/2000/svg" viewBox="0 0 248.06 244.57"><defs><style>.cls-1{fill:#0645f7;fill-rule:evenodd;}</style></defs><path class="cls-1" d="M896.44,603a9.23,9.23,0,1,1,9.17-9.27v0A9.24,9.24,0,0,1,896.44,603Zm-4.86-99.39a9.4,9.4,0,1,1,.15,0Zm0-27.92a9.32,9.32,0,1,1,9.33-9.32v.05a9.28,9.28,0,0,1-9.18,9.27Zm-18.69-16.46v17h-18.6V455.59A9.28,9.28,0,0,1,857,449l22-21.76a9.72,9.72,0,0,1,11-2,9.23,9.23,0,0,1,2.53,14.91Zm16.9,77.69a9.74,9.74,0,0,1-11-2l-21.94-21.75a9.28,9.28,0,0,1-2.72-6.56v-21h18.74v17L892.31,522a9.21,9.21,0,0,1-2.38,14.71Zm-44.87-90.26v67.19l53.41,53.41a9.39,9.39,0,0,1-13.11,13.45h0L828.9,524.34a9.26,9.26,0,0,1-2.77-6.6v-75a9.26,9.26,0,0,1,2.77-6.6l34.38-34.43a9.39,9.39,0,0,1,13.49,13.07Zm-21.6-17a9.33,9.33,0,0,1-6.66,2.72H741.89a9.18,9.18,0,0,1-6.65-2.72l-34.38-34.47A9.37,9.37,0,0,1,714,381.84l31.81,31.85h67.15L844.49,382a9.71,9.71,0,0,1,11.07-2,9.42,9.42,0,0,1,4.15,12.66,9.24,9.24,0,0,1-1.73,2.39Zm-10.39-28.16a9.36,9.36,0,0,1-6.66,2.77H785.49V385.58h17.09l19.18-19.18a9.69,9.69,0,0,1,11-2A9.4,9.4,0,0,1,836.94,377a9.12,9.12,0,0,1-1.73,2.4ZM793,377.27a9.32,9.32,0,1,1,9.32-9.32,9.32,9.32,0,0,1-9.13,9.13Zm-37.87,27.05a9.36,9.36,0,0,1-6.66-2.77l-21.94-22a9.38,9.38,0,1,1,13.11-13.41l19.42,19.43h17.09v18.74Zm10.19-27.24a9.33,9.33,0,1,1,9.33-9.32,9.32,9.32,0,0,1-9.33,9.32Zm-33,65.84v74.92a9.41,9.41,0,0,1-2.72,6.65l-34.38,34.42a9.71,9.71,0,0,1-11.07,2,9.42,9.42,0,0,1-2.33-15.1l31.75-31.95V446.8l-31.75-31.75a9.39,9.39,0,0,1,13.11-13.45l34.67,34.57A9.26,9.26,0,0,1,732.33,442.92Zm-31.08,5.92a9.11,9.11,0,0,1,3,6.75v20.83H685.47v-17l-19.18-19.18a9.32,9.32,0,1,1,12.92-13.44.81.81,0,0,1,.1.09Zm-34.62,8.26a9.32,9.32,0,1,1-9.07,9.56,1.93,1.93,0,0,1,0-.24,9.32,9.32,0,0,1,9.28-9.32Zm0,27.91a9.32,9.32,0,1,1-9.07,9.57.76.76,0,0,1,0-.15,9.34,9.34,0,0,1,9.23-9.42h-.15Zm18.65,17.58v-17h18.93v20.83a9.11,9.11,0,0,1-3,6.55L679.5,534.73a9.69,9.69,0,0,1-11,2,9.22,9.22,0,0,1-4.34-12.3,9,9,0,0,1,1.86-2.6Zm50,26.41a9.29,9.29,0,0,1,6.6-2.76h74.78a9.34,9.34,0,0,1,6.65,2.76l55.88,56A9.37,9.37,0,1,1,866,598.39L812.63,545h-67l-31.61,31.61a9.72,9.72,0,0,1-11,2A9.43,9.43,0,0,1,698.89,566a9.71,9.71,0,0,1,1.73-2.4Zm13.3,28.12a9.68,9.68,0,0,1,6.66-2.72h21v18.74H759l-18.94,19.18a9.37,9.37,0,0,1-13.44-13.06Zm16.85,26.51a9.32,9.32,0,1,1-9.27,9.37v0a9.31,9.31,0,0,1,9.22-9.32Zm41.13-29.14a9.77,9.77,0,0,1,6.65,2.72l21.94,22A9.39,9.39,0,0,1,822,592.66h0l-19.43-19.42H785.49V554.4h21Zm-13.26,29.14a9.4,9.4,0,1,1-.14,0h.14Z" transform="translate(-657.55 -358.43)"/></svg>